<svg xmlns="http://www.w3.org/2000/svg" viewBox="0 0 100 100">
  <defs>
    <linearGradient id="pyGradient1" x1="0%" y1="0%" x2="0%" y2="100%">
      <stop offset="0%" style="stop-color:#387EB8;stop-opacity:1" />
      <stop offset="100%" style="stop-color:#366994;stop-opacity:1" />
    </linearGradient>
    <linearGradient id="pyGradient2" x1="0%" y1="0%" x2="0%" y2="100%">
      <stop offset="0%" style="stop-color:#FFE873;stop-opacity:1" />
      <stop offset="100%" style="stop-color:#FFD43B;stop-opacity:1" />
    </linearGradient>
  </defs>
  <path fill="url(#pyGradient1)" d="M50,10 C35,10 25,20 25,35 L25,45 L50,45 L50,50 L25,50 L20,50 C15,50 10,55 10,65 C10,75 15,80 20,80 L30,80 L30,70 C30,60 35,55 45,55 L70,55 C75,55 80,50 80,45 L80,25 C80,15 70,10 55,10 Z M40,20 C42.5,20 45,22.5 45,25 C45,27.5 42.5,30 40,30 C37.5,30 35,27.5 35,25 C35,22.5 37.5,20 40,20 Z"/>
  <path fill="url(#pyGradient2)" d="M50,90 C65,90 75,80 75,65 L75,55 L50,55 L50,50 L75,50 L80,50 C85,50 90,45 90,35 C90,25 85,20 80,20 L70,20 L70,30 C70,40 65,45 55,45 L30,45 C25,45 20,50 20,55 L20,75 C20,85 30,90 45,90 Z M60,80 C57.5,80 55,77.5 55,75 C55,72.5 57.5,70 60,70 C62.5,70 65,72.5 65,75 C65,77.5 62.5,80 60,80 Z"/>
</svg>
