<?xml version="1.0" standalone="no"?>
<!DOCTYPE svg PUBLIC "-//W3C//DTD SVG 20010904//EN"
 "http://www.w3.org/TR/2001/REC-SVG-20010904/DTD/svg10.dtd">
<svg version="1.0" xmlns="http://www.w3.org/2000/svg"
 width="600.000000pt" height="228.000000pt" viewBox="0 0 600.000000 228.000000"
 preserveAspectRatio="xMidYMid meet">
<g transform="translate(0.000000,228.000000) scale(0.100000,-0.100000)">
<!-- Orange hand/checkmark symbol - FILLED -->
<g stroke="none">
<path fill="#FF6B35" d="M1369 2217 c-26 -34 -79 -105 -120 -157 -40 -52 -115 -151 -168 -220
-134 -177 -185 -244 -191 -250 -3 -3 -39 -50 -80 -105 -41 -55 -77 -102 -81
-105 -3 -3 -39 -50 -80 -106 l-75 -101 -44 65 c-25 36 -50 70 -55 76 -6 6 -35
45 -65 86 -30 41 -57 77 -60 80 -3 3 -17 21 -30 40 -13 19 -25 36 -26 38 -4 6
-284 -231 -284 -241 0 -11 79 -129 190 -284 36 -50 85 -121 110 -158 25 -36
64 -92 87 -123 l42 -57 1 -340 0 -340 437 2 438 2 6 68 c8 88 23 144 61 218
71 138 171 239 301 303 76 38 201 72 262 72 l25 0 0 170 0 171 -265 -3 c-146
-2 -265 0 -265 4 0 4 55 36 123 73 67 36 147 79 177 96 30 17 100 56 155 86
55 31 101 57 103 58 7 6 -180 320 -190 317 -6 -1 -105 -59 -222 -129 -116 -69
-241 -143 -278 -165 -66 -39 -83 -58 -53 -58 8 0 15 5 15 10 0 6 6 10 14 10 8
0 22 7 30 16 9 8 21 12 27 8 8 -5 9 -3 4 6 -6 10 -4 12 9 7 9 -4 15 -3 12 2
-5 8 18 20 49 25 6 1 9 7 8 14 -2 7 0 11 5 11 24 -4 42 2 36 13 -5 7 0 9 14 6
13 -4 20 -2 19 6 -1 6 4 10 11 8 8 -1 11 2 8 7 -4 5 4 13 16 16 13 4 33 16 45
27 13 12 29 18 38 14 9 -3 14 -2 12 2 -6 9 19 33 27 25 3 -4 17 4 31 17 14 13
25 20 25 15 0 -5 6 -1 13 10 8 10 19 15 26 11 7 -4 10 -2 9 5 -2 6 3 14 10 16
8 3 10 -2 6 -14 -5 -15 -4 -15 7 2 6 11 13 22 15 24 6 7 34 -21 34 -35 0 -8 9
-23 20 -34 11 -11 20 -29 20 -40 0 -11 7 -23 15 -26 8 -4 15 -12 15 -19 0 -6
13 -32 30 -56 16 -24 30 -47 30 -51 0 -16 -46 -49 -62 -44 -11 2 -15 0 -11 -7
4 -6 0 -8 -10 -4 -9 3 -16 2 -14 -4 2 -8 -44 -36 -113 -68 -14 -6 -17 -9 -7
-6 10 2 16 1 13 -4 -3 -5 -18 -12 -32 -15 -15 -4 -43 -18 -63 -32 -19 -13 -47
-24 -61 -24 -17 0 -21 -3 -12 -9 11 -7 11 -9 -2 -14 -9 -4 -23 -4 -31 -1 -11
5 -13 2 -8 -12 5 -14 3 -16 -12 -10 -11 4 -16 4 -12 0 3 -4 -16 -17 -43 -30
-51 -24 -64 -50 -37 -72 9 -8 90 -10 250 -7 179 3 238 1 244 -8 4 -7 9 -72 10
-144 l2 -133 -42 -7 c-23 -4 -46 -6 -51 -5 -4 2 -13 -1 -20 -6 -6 -5 -32 -13
-59 -16 -29 -5 -45 -11 -41 -18 4 -6 -1 -8 -16 -3 -13 4 -20 3 -17 -2 3 -5
-26 -24 -64 -42 -38 -18 -69 -38 -69 -43 0 -6 -6 -8 -14 -5 -8 3 -20 -2 -28
-11 -11 -13 -11 -15 2 -7 8 4 2 -5 -15 -21 -16 -16 -33 -28 -36 -27 -4 1 -10
-9 -13 -23 -4 -14 -11 -22 -16 -19 -6 3 -10 -1 -10 -10 0 -8 -7 -18 -15 -21
-8 -4 -15 -12 -15 -20 0 -17 -17 -18 -23 -1 -3 6 -3 -3 0 -20 3 -20 1 -33 -5
-33 -6 0 -14 -10 -18 -22 -3 -13 -14 -32 -23 -42 -10 -12 -11 -16 -2 -11 9 5
9 1 -3 -16 -21 -33 -47 -149 -39 -178 4 -17 3 -22 -5 -17 -8 5 -10 2 -6 -9 6
-14 -36 -15 -406 -13 l-412 3 -4 38 c-2 21 1 37 7 37 10 0 6 479 -5 555 -2 17
-4 36 -5 43 0 7 -5 11 -9 8 -4 -3 -19 13 -32 35 -14 21 -28 39 -32 39 -5 0 -8
7 -8 15 0 9 -11 28 -25 43 -14 15 -25 32 -25 39 0 6 -5 15 -12 19 -7 5 -8 3
-3 -6 5 -9 4 -11 -3 -6 -7 4 -12 13 -12 20 0 7 -9 21 -19 33 -11 11 -29 39
-41 63 -12 24 -30 52 -41 63 -31 34 -70 94 -73 114 -2 10 -9 18 -17 18 -8 1
-13 7 -11 14 1 7 -2 10 -7 7 -11 -7 -23 22 -15 35 3 5 0 8 -6 7 -6 -2 -19 8
-28 22 -9 14 -13 22 -8 19 4 -4 22 8 40 27 18 19 38 34 45 34 6 0 11 7 11 15
0 18 36 38 52 29 8 -5 9 -2 5 10 -5 12 -3 16 5 14 7 -3 23 6 36 19 12 13 27
23 33 23 6 0 8 3 6 8 -3 4 0 12 7 18 9 8 15 7 24 -3 7 -7 10 -13 7 -13 -4 0 0
-7 7 -15 30 -33 38 -45 38 -55 0 -5 8 -10 18 -11 9 0 12 -3 6 -5 -6 -3 4 -21
23 -42 55 -58 95 -121 87 -135 -4 -6 -4 -9 1 -5 7 7 64 -49 65 -62 0 -4 11 -6
24 -6 14 0 23 3 20 7 -5 9 21 30 29 24 4 -3 5 -2 2 1 -2 4 8 22 22 41 20 26
28 31 36 21 6 -9 7 -8 3 5 -6 20 17 50 29 39 5 -4 5 1 2 10 -4 11 7 30 34 57
21 23 37 41 34 41 -3 0 6 12 20 27 14 15 25 34 25 41 0 8 6 12 14 9 9 -4 13
-1 10 7 -3 7 11 30 30 52 20 21 42 47 50 56 8 9 22 31 31 48 9 17 20 28 25 25
6 -4 7 2 3 12 -6 16 -5 17 12 3 11 -9 16 -10 11 -3 -12 21 83 150 100 135 3
-4 5 0 2 8 -2 8 4 23 13 34 10 10 16 23 13 28 -8 13 10 10 25 -4 10 -11 11
-10 6 4 -6 16 28 88 41 88 3 0 3 -4 0 -8 -3 -5 1 -9 9 -9 8 0 12 4 9 8 -9 15
16 58 61 106 25 26 52 60 61 75 25 47 64 101 64 89 0 -6 7 -11 16 -11 8 0 12
-5 9 -10 -4 -6 -2 -9 4 -8 5 2 29 -15 53 -38 24 -22 60 -53 81 -69 21 -15 36
-34 33 -41 -3 -8 0 -11 8 -8 8 3 26 -7 41 -23 15 -15 24 -22 20 -14 -5 9 -4
12 3 7 8 -5 5 -17 -11 -41 -12 -18 -25 -31 -30 -28 -4 2 -7 1 -6 -4 3 -19 -2
-33 -12 -33 -5 0 -7 5 -3 12 4 7 3 8 -5 4 -7 -4 -10 -13 -8 -19 4 -12 -57
-104 -78 -119 -5 -4 -7 -8 -2 -8 4 0 -1 -8 -10 -18 -40 -41 -61 -71 -56 -76 4
-3 1 -6 -5 -6 -7 0 -12 -6 -12 -13 0 -18 -35 -49 -44 -40 -4 5 -7 3 -6 -2 5
-21 0 -36 -10 -30 -6 4 -7 -1 -3 -11 4 -11 2 -15 -4 -11 -6 4 -10 0 -9 -8 0
-7 -2 -13 -6 -12 -4 1 -19 -18 -32 -43 -14 -25 -30 -44 -36 -42 -6 1 -8 -2 -5
-8 4 -7 -2 -21 -12 -33 -11 -12 -23 -30 -26 -40 -4 -11 -12 -15 -18 -11 -8 5
-9 3 -4 -6 5 -8 2 -17 -7 -24 -19 -14 -31 -47 -15 -40 7 2 48 54 92 114 44 61
91 126 105 144 14 19 53 74 87 123 120 170 191 268 211 294 l21 26 -132 110
c-73 61 -143 120 -156 132 -13 12 -24 21 -25 21 -1 -1 -22 -29 -47 -63z"/>
<path fill="#FF6B35" d="M1215 2109 c-4 -6 -5 -12 -2 -15 2 -3 7 2 10 11 7 17 1 20 -8 4z"/>
<path fill="#FF6B35" d="M1846 1527 c3 -10 9 -15 12 -12 3 3 0 11 -7 18 -10 9 -11 8 -5 -6z"/>
<path fill="#FF6B35" d="M150 1410 c-9 -6 -10 -10 -3 -10 6 0 15 5 18 10 8 12 4 12 -15 0z"/>
</g>
<!-- Black text "YaizY" - FILLED -->
<g stroke="none">
<path fill="#000000" d="M2445 720 l225 -300 0 -202 0 -203 95 0 95 0 0 208 0 209 83 106 c46
59 147 192 225 295 l143 188 -107 -3 -107 -3 -161 -212 c-89 -116 -164 -211
-168 -210 -8 2 -298 396 -305 415 -4 9 -38 12 -124 12 l-119 0 225 -300z m50
188 c21 -32 43 -58 48 -58 6 0 8 -3 4 -6 -3 -3 3 -15 14 -27 10 -11 19 -26 19
-33 0 -6 6 -14 13 -17 7 -3 26 -24 42 -48 16 -24 48 -67 72 -96 24 -28 43 -57
44 -65 0 -10 2 -10 6 0 2 6 9 12 14 12 6 0 7 -4 4 -10 -3 -5 -1 -10 4 -10 10
0 15 15 9 23 -1 1 7 13 19 27 28 33 60 68 51 56 -5 -6 -8 -14 -8 -20 0 -5 6
-1 14 9 8 11 12 23 10 26 -2 4 11 23 29 42 38 41 53 60 53 67 -2 13 57 79 65
74 5 -3 9 -2 8 3 -4 21 4 35 44 74 23 24 35 40 27 35 -8 -4 -6 0 4 8 11 9 40
16 65 17 25 0 53 2 62 4 9 1 16 -3 16 -11 0 -7 -4 -11 -8 -8 -4 2 -14 -8 -21
-23 -26 -51 -43 -73 -56 -73 -7 0 -10 -4 -7 -10 3 -5 2 -10 -3 -10 -4 0 -19
-19 -32 -41 -12 -23 -31 -50 -40 -59 -9 -9 -31 -38 -49 -63 -18 -26 -34 -47
-37 -47 -3 0 -2 5 2 12 5 7 3 8 -5 4 -7 -5 -10 -14 -7 -21 6 -16 -37 -58 -48
-48 -4 5 -7 4 -5 -2 4 -17 -23 -65 -34 -58 -6 4 -7 1 -2 -7 5 -8 -3 -21 -21
-37 -16 -13 -22 -22 -14 -18 8 4 4 -3 -9 -15 l-25 -21 3 -197 2 -197 -63 1
c-74 2 -67 -24 -70 228 -2 131 -6 180 -15 183 -7 3 -22 22 -34 43 -12 22 -26
37 -31 34 -4 -3 -8 1 -8 8 0 7 -10 25 -23 40 -13 14 -43 54 -68 89 -24 34 -53
71 -64 83 -41 43 -94 123 -87 131 4 5 2 5 -4 2 -7 -4 -20 5 -30 21 -9 15 -25
33 -33 40 -13 11 -13 12 -1 6 10 -5 8 1 -5 15 l-20 23 73 -4 c39 -1 72 1 72 5
0 14 34 -26 75 -85z"/>
<path fill="#000000" d="M5135 721 l225 -299 0 -204 0 -203 92 2 93 2 2 205 2 205 133 173
c73 95 174 228 225 296 l94 122 -105 0 -104 0 -133 -172 c-73 -95 -147 -192
-164 -215 -16 -23 -33 -42 -36 -42 -4 -1 -15 11 -25 27 -9 15 -80 111 -157
215 l-139 187 -114 0 -115 0 226 -299z m-112 259 c4 0 6 3 4 8 -3 4 19 5 49 4
49 -4 55 -7 75 -38 11 -19 25 -34 30 -34 5 0 9 -6 9 -13 0 -7 18 -33 40 -57
22 -25 40 -50 40 -56 0 -6 10 -19 23 -28 12 -9 15 -14 7 -11 -12 5 -12 4 1 -7
8 -7 18 -21 22 -31 4 -11 12 -15 19 -11 7 4 10 4 6 -1 -8 -8 21 -51 68 -102
13 -14 24 -30 24 -35 0 -5 8 -4 19 1 10 6 21 8 23 5 3 -2 17 11 32 31 15 19
24 35 21 35 -4 0 1 7 9 16 9 9 28 32 43 52 15 21 41 53 58 73 16 20 48 61 70
93 22 31 43 56 48 56 4 0 5 5 2 10 -3 6 1 10 10 10 9 0 14 4 11 9 -11 17 20
28 82 30 41 1 62 -2 62 -10 0 -18 -60 -89 -73 -86 -7 1 -11 -4 -9 -11 2 -12
-24 -49 -76 -106 -13 -14 -13 -17 -2 -12 8 4 6 0 -4 -8 -11 -9 -23 -16 -27
-16 -4 0 -10 -7 -13 -16 -4 -10 -2 -13 7 -9 6 4 5 1 -3 -7 -9 -7 -36 -41 -62
-75 -25 -34 -49 -59 -52 -55 -4 3 -4 -1 -1 -9 4 -11 -6 -27 -29 -47 -19 -16
-32 -33 -29 -36 4 -3 1 -6 -5 -6 -6 0 -16 -10 -23 -21 -9 -17 -8 -20 3 -13 10
6 11 5 2 -7 -8 -9 -13 -81 -15 -199 l-4 -185 -45 -5 c-85 -10 -80 -20 -80 182
0 199 -3 212 -74 297 -20 24 -36 46 -36 49 0 4 -11 21 -25 37 -75 88 -115 140
-155 200 -19 28 -42 57 -52 66 -10 9 -15 19 -11 22 3 4 -2 9 -11 13 -9 3 -13
10 -10 15 3 5 1 9 -3 9 -5 0 -14 9 -21 20 -15 24 -6 48 11 31 6 -6 15 -11 20
-11z"/>
<path fill="#000000" d="M4050 903 l0 -93 90 0 90 0 0 93 0 92 -90 0 -90 0 0 -92z m144 55
c-3 -4 -1 -8 5 -8 5 0 8 -8 6 -17 -2 -10 -4 -33 -4 -50 l-1 -33 -59 0 -59 0
-4 49 c-1 27 0 47 5 44 4 -2 7 3 7 12 0 12 11 15 55 14 30 -1 52 -6 49 -11z"/>
<path fill="#000000" d="M5336 828 c3 -5 10 -6 15 -3 13 9 11 12 -6 12 -8 0 -12 -4 -9 -9z"/>
<path fill="#000000" d="M3407 709 c-80 -19 -163 -83 -199 -153 -99 -193 -36 -443 131 -522
29 -14 141 -36 149 -29 4 3 -102 46 -121 49 -9 1 -24 10 -35 19 -10 9 -23 17
-29 17 -6 0 -23 19 -39 43 -16 23 -33 45 -37 48 -5 3 -8 9 -8 13 1 7 -7 32
-20 63 -4 13 -7 64 -5 115 3 96 27 171 73 224 23 27 60 47 73 39 5 -3 7 0 4 8
-3 8 0 18 7 23 8 5 10 3 4 -5 -4 -8 2 -7 17 3 29 19 139 27 188 13 33 -9 84
-42 122 -79 10 -10 22 -18 27 -18 15 0 31 26 34 59 2 17 7 31 10 31 4 0 27 0
52 0 l45 0 0 -310 0 -310 -54 0 c-37 0 -54 4 -53 13 1 36 -5 57 -20 73 -16 15
-18 15 -41 -12 -13 -16 -21 -22 -16 -14 4 8 -8 -1 -27 -21 -19 -19 -38 -37
-44 -38 -5 -2 -17 -6 -25 -8 -8 -2 -28 -11 -45 -18 l-30 -14 37 0 c59 -1 150
49 163 90 12 38 23 18 18 -33 l-5 -53 88 2 89 2 3 333 c1 183 1 337 -2 343 -2
6 -38 9 -91 7 l-87 -4 4 -49 c5 -48 -5 -67 -17 -30 -8 26 -74 70 -131 87 -52
16 -100 17 -157 3z"/>
<path fill="#000000" d="M4060 700 c0 -3 -1 -157 -1 -343 l0 -338 86 -2 85 -2 0 345 0 345
-85 0 c-47 0 -85 -2 -85 -5z m135 -340 l0 -310 -52 0 -53 0 0 310 0 310 53 0
52 0 0 -310z"/>
<path fill="#000000" d="M4380 632 l0 -73 200 3 c110 2 200 2 200 0 0 -1 -56 -60 -124 -130
-68 -70 -158 -163 -199 -207 l-76 -80 -1 -65 0 -65 335 0 335 0 0 72 0 73
-219 2 -220 3 187 194 187 194 5 73 5 73 -308 3 -307 3 0 -73z m581 6 c0 -18
2 -41 4 -50 2 -9 -3 -19 -11 -22 -8 -3 -14 -12 -14 -21 0 -8 -3 -15 -7 -15
-11 0 -64 -47 -65 -57 -1 -4 -15 -18 -31 -30 -17 -13 -29 -23 -26 -23 3 0 -48
-55 -113 -122 -65 -67 -116 -124 -113 -126 3 -3 0 -11 -7 -19 -9 -11 -7 -12 7
-7 13 5 16 4 11 -4 -9 -15 -23 -14 219 -12 l200 1 0 -40 0 -41 -302 0 -303 0
0 43 c1 39 20 83 32 71 3 -3 16 11 28 30 12 20 28 36 36 36 9 0 12 5 9 10 -3
6 1 10 10 10 10 0 13 5 9 12 -5 8 -2 9 11 4 16 -6 16 -4 4 11 -8 9 -9 14 -4
11 9 -5 123 103 126 120 0 4 5 6 10 5 5 -2 9 3 9 10 0 8 10 22 23 33 l22 19
-20 -25 -20 -25 28 24 c15 14 27 31 27 38 0 8 5 11 12 7 8 -5 9 -2 5 10 -4 9
-3 14 2 11 5 -3 16 4 25 16 11 17 12 26 3 40 -6 10 -15 15 -19 13 -4 -3 -8 0
-8 7 0 9 -3 9 -14 0 -10 -9 -16 -9 -21 -1 -5 8 -57 11 -163 9 l-157 -2 -3 37
-3 36 275 0 276 0 1 -32z"/>
<path fill="#000000" d="M3213 658 c0 -13 1 -17 4 -10 3 6 10 9 16 5 7 -4 6 1 -2 10 -17 21
-17 21 -18 -5z"/>
<path fill="#000000" d="M3435 573 c-27 -12 -47 -23 -43 -23 4 0 -9 -16 -29 -35 -20 -19 -33
-35 -29 -35 3 0 -1 -12 -10 -26 -24 -36 -25 -166 -1 -192 9 -10 14 -22 10 -25
-3 -4 -1 -7 5 -7 7 0 12 -5 12 -11 0 -24 69 -83 102 -86 92 -9 138 -10 138 -2
0 5 3 8 8 8 35 -6 91 48 121 115 35 80 22 216 -23 248 -6 4 -7 8 -2 8 5 0 -3
11 -18 25 -15 14 -32 25 -37 25 -6 0 -7 5 -3 12 4 7 3 8 -5 4 -6 -4 -18 -2
-26 4 -8 6 -20 8 -26 4 -7 -4 -9 -3 -5 4 12 20 -87 10 -139 -15z m180 -30 c67
-34 98 -100 93 -199 -6 -124 -68 -188 -183 -188 -97 -1 -162 54 -184 156 -39
172 122 307 274 231z m-175 -393 c8 -5 11 -10 5 -10 -5 0 -17 5 -25 10 -8 5
-10 10 -5 10 6 0 17 -5 25 -10z"/>
<path fill="#000000" d="M3010 541 c0 -6 4 -13 10 -16 6 -3 7 1 4 9 -7 18 -14 21 -14 7z"/>
</g>
</g>
</svg>
